<?xml version="1.0" encoding="UTF-8" standalone="no"?>
<!-- Created with Inkscape (http://www.inkscape.org/) -->

<svg
   width="220mm"
   height="42mm"
   viewBox="0 0 219.99999 42"
   version="1.1"
   id="svg8"
   xmlns="http://www.w3.org/2000/svg"
   xmlns:svg="http://www.w3.org/2000/svg"
   xmlns:rdf="http://www.w3.org/1999/02/22-rdf-syntax-ns#"
   xmlns:cc="http://creativecommons.org/ns#"
   xmlns:dc="http://purl.org/dc/elements/1.1/">
  <defs
     id="defs2" />
  <metadata
     id="metadata5">
    <rdf:RDF>
      <cc:Work
         rdf:about="">
        <dc:format>image/svg+xml</dc:format>
        <dc:type
           rdf:resource="http://purl.org/dc/dcmitype/StillImage" />
      </cc:Work>
    </rdf:RDF>
  </metadata>
  <g
     id="layer1"
     transform="translate(-51.206653,-25.882409)">
    <flowRoot
       xml:space="preserve"
       id="flowRoot826"
       style="font-style:normal;font-weight:normal;font-size:74.6667px;line-height:1.25;font-family:sans-serif;letter-spacing:0px;word-spacing:0px;fill:#000000;fill-opacity:1;stroke:none"
       transform="matrix(0.26458333,0,0,0.26458333,51.681186,27.157183)"><flowRegion
         id="flowRegion828"
         style="font-size:74.6667px"><rect
           id="rect830"
           width="547.50275"
           height="100.0051"
           x="194.95944"
           y="26.480993"
           style="font-size:74.66666412px" /></flowRegion><flowPara
         id="flowPara832"
         style="font-style:normal;font-variant:normal;font-weight:bold;font-stretch:normal;font-size:77.3333px;font-family:'Fira Sans';-inkscape-font-specification:'Fira Sans Bold'">P<flowSpan
   style="font-size:64px"
   id="flowSpan1">RE</flowSpan>P<flowSpan
   style="font-size:64px"
   id="flowSpan2">A</flowSpan>MS</flowPara></flowRoot>
    <flowRoot
       xml:space="preserve"
       id="flowRoot834"
       style="font-style:normal;font-weight:normal;font-size:40px;line-height:1.25;font-family:sans-serif;letter-spacing:0px;word-spacing:0px;fill:#000000;fill-opacity:1;stroke:none"
       transform="matrix(0.26458333,0,0,0.26458333,51.206653,25.882406)"><flowRegion
         id="flowRegion836"><rect
           id="rect838"
           width="256.57874"
           height="44.446712"
           x="351.53308"
           y="114.36427" /></flowRegion><flowPara
         id="flowPara840" /></flowRoot>
    <text
       xml:space="preserve"
       style="font-style:normal;font-weight:normal;font-size:10.5833px;line-height:1.25;font-family:sans-serif;letter-spacing:0px;word-spacing:0px;fill:#000000;fill-opacity:1;stroke:none;stroke-width:0.264583"
       x="104.32798"
       y="63.241581"
       id="text844"><tspan
         id="tspan842"
         x="104.32798"
         y="63.241581"
         style="font-style:normal;font-variant:normal;font-weight:normal;font-stretch:normal;font-size:7.05556px;font-family:'Fira Sans';-inkscape-font-specification:'Fira Sans';fill:#7d9aaa;stroke-width:0.264583"><tspan
   style="font-style:normal;font-variant:normal;font-weight:bold;font-stretch:normal;font-family:'Fira Sans';-inkscape-font-specification:'Fira Sans Bold'"
   id="tspan12">P</tspan>rivacy-P<tspan
   style="font-style:normal;font-variant:normal;font-weight:bold;font-stretch:normal;font-family:'Fira Sans';-inkscape-font-specification:'Fira Sans Bold'"
   id="tspan11">re</tspan>serving <tspan
   style="font-style:normal;font-variant:normal;font-weight:bold;font-stretch:normal;font-family:'Fira Sans';-inkscape-font-specification:'Fira Sans Bold'"
   id="tspan7">Pa</tspan>rticipant <tspan
   style="font-style:normal;font-variant:normal;font-weight:bold;font-stretch:normal;font-family:'Fira Sans';-inkscape-font-specification:'Fira Sans Bold'"
   id="tspan8">M</tspan>anagement <tspan
   style="font-style:normal;font-variant:normal;font-weight:bold;font-stretch:normal;font-family:'Fira Sans';-inkscape-font-specification:'Fira Sans Bold'"
   id="tspan14">S</tspan>ystem</tspan></text>
    <g
       id="g1"
       transform="matrix(7.4765956,0,0,7.4765956,-1166.07,194.74431)">
      <path
         d="m 167.8879,-18.832174 v -0.132292 c 0,-0.881944 -1.32291,-0.881944 -1.32291,0 v 0.132292 c -0.14552,0 -0.26459,0.119062 -0.26459,0.264583 v 1.058333 c 0,0.145521 0.11907,0.264584 0.26459,0.264584 h 1.32291 c 0.14552,0 0.26459,-0.119063 0.26459,-0.264584 v -1.058333 c 0,-0.145521 -0.11907,-0.264583 -0.26459,-0.264583 m -0.26458,0 h -0.79375 v -0.132292 c 0,-0.219604 0.17727,-0.396875 0.39687,-0.396875 0.21961,0 0.39688,0.177271 0.39688,0.396875 v 0.132292"
         fill="#626262"
         id="path2"
         style="fill:#a32638;fill-opacity:1;stroke-width:0.264583;-ms-transform:rotate(360deg);-webkit-transform:rotate(360deg)" />
      <path
         d="m 164.18374,-21.213424 c 0,-0.58473 0.4736,-1.058334 1.05833,-1.058334 0.58473,0 1.05833,0.473604 1.05833,1.058334 0,0.584729 -0.4736,1.058333 -1.05833,1.058333 -0.58473,0 -1.05833,-0.473604 -1.05833,-1.058333 m 1.5875,3.967971 h -2.64584 v -1.322138 c 0,-0.584729 0.94721,-1.058333 2.11667,-1.058333 0.33602,0 0.65087,0.03969 0.93398,0.108479 -0.0556,0.108479 -0.10054,0.22225 -0.12171,0.343958 -0.17198,0.145521 -0.2831,0.362479 -0.2831,0.605896 z"
         fill="#626262"
         id="path2-0"
         style="fill:#bd6005;fill-opacity:1;stroke-width:0.264583;-ms-transform:rotate(360deg);-webkit-transform:rotate(360deg)" />
    </g>
  </g>
</svg>
