<svg xmlns="http://www.w3.org/2000/svg" viewBox="0 0 24 24"><title>fa-laptop</title><path d="m5.2 14.175q-.825 0-1.4125-.5875t-.5875-1.4125v-8.8q0-.825.5875-1.4125t1.4125-.5875h13.6q.825 0 1.4125.5875t.5875 1.4125v8.8q0 .825-.5875 1.4125t-1.4125.5875h-13.6zm-.4-10.8v8.8q0 .1625.1187.2813t.2813.1188h13.6q.1625 0 .2813-.1188t.1188-.2813v-8.8q0-.1625-.1188-.2813t-.2813-.1187h-13.6q-.1625 0-.2813.1187t-.1187.2813zm17.2 11.6h2v1.2q0 .5-.5875.85t-1.4125.35h-20q-.825 0-1.4125-.35t-.5875-.85v-1.2h2 20zm-9 1.2q.2 0 .2-.2t-.2-.2h-2q-.2 0-.2.2t.2.2h2z" /></svg>
